<svg width="80" height="65" viewBox="0 0 80 65" fill="none" xmlns="http://www.w3.org/2000/svg">
<path d="M78.7224 20.3436C78.241 19.8707 77.6476 19.5273 76.9975 19.3456C76.3475 19.1639 75.6621 19.1497 75.0052 19.3044C74.1396 19.5043 73.2553 19.6115 72.3671 19.6242C69.1868 19.6242 66.1368 18.3608 63.888 16.112C61.6392 13.8632 60.3758 10.8132 60.3758 7.63292C60.3885 6.74471 60.4957 5.86036 60.6956 4.99485C60.8503 4.33789 60.8361 3.65245 60.6544 3.00245C60.4727 2.35244 60.1293 1.75904 59.6564 1.27756C59.1911 0.77639 58.605 0.402971 57.9542 0.193025C57.3033 -0.0169212 56.6095 -0.0563746 55.9391 0.078439C51.9609 0.956751 48.3527 3.0465 45.6111 6.06006C42.8696 9.07362 41.1294 12.8628 40.6303 16.9062C38.4533 16.3262 36.2079 16.0438 33.9551 16.0668C28.1948 16.0635 22.6257 18.1337 18.2661 21.8987C13.9065 25.6638 11.0477 30.8723 10.2125 36.5718C6.95961 37.484 4.14671 39.5424 2.2933 42.367C0.4399 45.1915 -0.328801 48.5913 0.129178 51.9385C0.587158 55.2856 2.24088 58.354 4.7849 60.5768C7.32893 62.7997 10.5914 64.0269 13.9697 64.0317H50.623C55.2132 64.0317 59.6153 62.2083 62.8611 58.9625C66.1069 55.7168 67.9303 51.3146 67.9303 46.7244C67.9459 43.939 67.2731 41.1929 65.9717 38.7302C69.4044 37.7716 72.5135 35.9018 74.9695 33.3192C77.4255 30.7366 79.1367 27.5374 79.9216 24.0609C80.0564 23.3905 80.0169 22.6967 79.807 22.0458C79.597 21.395 79.2236 20.8089 78.7224 20.3436ZM50.7429 56.0376H13.9697C12.3796 56.0376 10.8546 55.4059 9.73018 54.2815C8.60578 53.1571 7.9741 51.6321 7.9741 50.042C7.9741 48.4518 8.60578 46.9268 9.73018 45.8024C10.8546 44.678 12.3796 44.0463 13.9697 44.0463C15.0298 44.0463 16.0465 43.6252 16.7961 42.8756C17.5457 42.126 17.9668 41.1093 17.9668 40.0492C17.9767 37.1758 18.7607 34.3581 20.2366 31.8926C21.7124 29.427 23.8254 27.4048 26.3533 26.0386C28.8812 24.6724 31.7306 24.0127 34.6017 24.1289C37.4728 24.2451 40.2596 25.1329 42.6688 26.699C45.5865 28.597 47.7933 31.4082 48.9442 34.6932C49.1727 35.38 49.5834 35.9919 50.1325 36.4636C50.6816 36.9353 51.3484 37.249 52.0619 37.3712C53.2876 37.4657 54.4826 37.8007 55.5788 38.357C56.675 38.9133 57.6509 39.6801 58.4507 40.6136C59.2506 41.5471 59.8588 42.6289 60.2405 43.7974C60.6222 44.966 60.7701 46.1982 60.6756 47.4239C60.5811 48.6495 60.2462 49.8446 59.6898 50.9408C59.1335 52.037 58.3667 53.0128 57.4332 53.8127C56.4998 54.6125 55.4179 55.2207 54.2494 55.6025C53.0809 55.9842 51.8486 56.1321 50.623 56.0376H50.7429ZM60.4957 31.6154C59.9371 31.6605 59.3757 31.6605 58.817 31.6154C57.8947 31.1212 56.9319 30.7067 55.9391 30.3763C54.2925 26.7915 51.7952 23.663 48.6644 21.263C48.6644 20.7833 48.6644 20.2637 48.6644 19.7841C48.6643 18.052 49.0394 16.3405 49.7639 14.7673C50.4884 13.1941 51.5451 11.7965 52.8613 10.6707C53.4802 14.935 55.4608 18.8851 58.5077 21.932C61.5546 24.9789 65.5047 26.9595 69.769 27.5784C68.5976 28.9019 67.1481 29.9502 65.5242 30.6481C63.9003 31.3461 62.1423 31.6764 60.3758 31.6154H60.4957Z" fill="black"/>
</svg>
