<svg width="80" height="66" viewBox="0 0 80 66" fill="none" xmlns="http://www.w3.org/2000/svg">
<path d="M76.3636 25.4509C76.3708 19.9911 74.6197 14.6742 71.3696 10.2871C68.1195 5.90009 63.5432 2.67616 58.3181 1.0926C53.093 -0.490957 47.4969 -0.349969 42.3582 1.49469C37.2195 3.33935 32.8113 6.78963 29.7862 11.3348C28.005 11.0045 26.1933 10.8679 24.3827 10.9275C17.7183 11.3968 11.4843 14.392 6.95326 19.3015C2.42218 24.211 -0.0643372 30.6647 0.00126584 37.3452C0.0089667 44.7968 2.97249 51.9409 8.24153 57.21C13.5106 62.479 20.6547 65.4425 28.1063 65.4502H61.8184C66.6387 65.4445 71.2599 63.5271 74.6683 60.1186C78.0768 56.7102 79.9942 52.089 79.9999 47.2687C80.0107 42.2287 78.2645 37.3424 75.0619 33.4508C75.9245 30.8718 76.3641 28.1703 76.3636 25.4509ZM50.9095 7.26938C53.5345 7.2694 56.1284 7.83783 58.5128 8.9356C60.8973 10.0334 63.0157 11.6344 64.7226 13.6288C66.4294 15.6231 67.6842 17.9634 68.4006 20.4887C69.1171 23.0141 69.2782 25.6646 68.8729 28.2581C65.6048 26.4314 61.926 25.4654 58.1821 25.4509C55.0982 25.3978 52.0427 26.0482 49.2477 27.3527C46.9447 21.4874 42.6007 16.6514 37.0152 13.7347C38.7172 11.7062 40.8435 10.0759 43.2442 8.9588C45.645 7.84168 48.2616 7.26498 50.9095 7.26938ZM61.8184 58.1776H28.1063C22.5829 58.1719 17.2875 55.9752 13.3819 52.0696C9.47634 48.164 7.27965 42.8686 7.27387 37.3452C7.1878 32.5342 8.94125 27.8717 12.1762 24.3097C15.4112 20.7476 19.8838 18.5546 24.6809 18.1783C29.1336 18.052 33.4816 19.5409 36.9223 22.37C40.363 25.1992 42.664 29.1776 43.4006 33.5708C43.4964 34.1992 43.7554 34.7916 44.1517 35.2888C44.548 35.7859 45.0677 36.1705 45.6589 36.4041C46.2502 36.6378 46.8924 36.7123 47.5215 36.6203C48.1505 36.5283 48.7445 36.273 49.2441 35.8798C51.9647 33.6813 55.397 32.5567 58.8911 32.7189C62.3852 32.8811 65.6985 34.3188 68.2038 36.7598C69.6322 38.1122 70.7701 39.7416 71.5478 41.5484C72.3256 43.3552 72.7269 45.3016 72.7273 47.2687C72.7273 50.1619 71.578 52.9367 69.5322 54.9825C67.4864 57.0283 64.7117 58.1776 61.8184 58.1776Z" fill="black"/>
</svg>
