<svg width="50" height="41" viewBox="0 0 50 41" fill="none" xmlns="http://www.w3.org/2000/svg">
<path d="M49.2015 12.7148C48.9006 12.4192 48.5297 12.2046 48.1235 12.091C47.7172 11.9774 47.2888 11.9686 46.8782 12.0652C46.3373 12.1902 45.7846 12.2572 45.2294 12.2651C43.2418 12.2651 41.3355 11.4755 39.93 10.07C38.5245 8.66451 37.7349 6.75825 37.7349 4.77058C37.7428 4.21544 37.8098 3.66272 37.9348 3.12178C38.0314 2.71118 38.0226 2.28278 37.909 1.87653C37.7954 1.47028 37.5808 1.0994 37.2852 0.798477C36.9944 0.485243 36.6281 0.251857 36.2213 0.120641C35.8146 -0.0105757 35.3809 -0.0352341 34.9619 0.0490244C32.4755 0.597969 30.2204 1.90406 28.5069 3.78754C26.7935 5.67101 25.7059 8.03927 25.3939 10.5663C24.0333 10.2039 22.6299 10.0274 21.222 10.0417C17.6217 10.0397 14.141 11.3335 11.4163 13.6867C8.69156 16.0399 6.90483 19.2952 6.38279 22.8574C4.34976 23.4275 2.59169 24.714 1.43332 26.4793C0.274937 28.2447 -0.205501 30.3696 0.0807366 32.4615C0.366974 34.5535 1.40055 36.4712 2.99056 37.8605C4.58058 39.2498 6.61962 40.0168 8.73108 40.0198H31.6393C34.5082 40.0198 37.2596 38.8802 39.2882 36.8516C41.3168 34.823 42.4564 32.0716 42.4564 29.2027C42.4662 27.4619 42.0457 25.7456 41.2323 24.2064C43.3777 23.6073 45.321 22.4386 46.8559 20.8245C48.3909 19.2104 49.4604 17.2109 49.951 15.0381C50.0352 14.6191 50.0106 14.1854 49.8794 13.7786C49.7481 13.3719 49.5148 13.0056 49.2015 12.7148ZM31.7143 35.0235H8.73108C7.73724 35.0235 6.78411 34.6287 6.08136 33.9259C5.37861 33.2232 4.98381 32.27 4.98381 31.2762C4.98381 30.2824 5.37861 29.3292 6.08136 28.6265C6.78411 27.9237 7.73724 27.529 8.73108 27.529C9.39364 27.529 10.0291 27.2657 10.4976 26.7973C10.9661 26.3288 11.2293 25.6933 11.2293 25.0308C11.2354 23.2349 11.7255 21.4738 12.6478 19.9328C13.5702 18.3919 14.8908 17.128 16.4708 16.2741C18.0507 15.4202 19.8316 15.0079 21.6261 15.0805C23.4205 15.1532 25.1622 15.7081 26.668 16.6869C28.4916 17.8731 29.8708 19.6301 30.5901 21.6832C30.7329 22.1125 30.9896 22.495 31.3328 22.7897C31.676 23.0845 32.0928 23.2806 32.5387 23.357C33.3047 23.416 34.0516 23.6254 34.7367 23.9731C35.4219 24.3208 36.0318 24.8001 36.5317 25.3835C37.0316 25.9669 37.4117 26.6431 37.6503 27.3734C37.8889 28.1037 37.9813 28.8739 37.9223 29.6399C37.8632 30.4059 37.6539 31.1528 37.3061 31.838C36.9584 32.5231 36.4792 33.133 35.8958 33.6329C35.3124 34.1328 34.6362 34.5129 33.9059 34.7515C33.1755 34.9901 32.4054 35.0825 31.6393 35.0235H31.7143ZM37.8098 19.7596C37.4607 19.7878 37.1098 19.7878 36.7606 19.7596C36.1842 19.4508 35.5824 19.1917 34.9619 18.9852C33.9328 16.7447 32.372 14.7894 30.4152 13.2894C30.4152 12.9896 30.4152 12.6648 30.4152 12.365C30.4152 11.2825 30.6496 10.2128 31.1024 9.22957C31.5552 8.24632 32.2157 7.37282 33.0383 6.66919C33.4251 9.33438 34.663 11.8032 36.5673 13.7075C38.4716 15.6118 40.9404 16.8497 43.6056 17.2365C42.8735 18.0637 41.9676 18.7189 40.9526 19.1551C39.9377 19.5913 38.8389 19.7977 37.7349 19.7596H37.8098Z" fill="black"/>
</svg>
