<svg width="50" height="41" viewBox="0 0 50 41" fill="none" xmlns="http://www.w3.org/2000/svg">
<path d="M47.7273 15.9068C47.7317 12.4945 46.6373 9.17135 44.606 6.42945C42.5747 3.68755 39.7145 1.6726 36.4488 0.682875C33.1831 -0.306848 29.6856 -0.218731 26.4739 0.934181C23.2622 2.08709 20.5071 4.24352 18.6164 7.08423C17.5031 6.8778 16.3708 6.79245 15.2392 6.82969C11.074 7.12302 7.17771 8.99497 4.34579 12.0634C1.51387 15.1319 -0.0402107 19.1654 0.000791147 23.3408C0.00560419 27.998 1.85781 32.4631 5.15096 35.7562C8.44411 39.0494 12.9092 40.9016 17.5664 40.9064H38.6365C41.6492 40.9028 44.5374 39.7044 46.6677 37.5741C48.798 35.4439 49.9964 32.5556 50 29.5429C50.0067 26.3929 48.9153 23.339 46.9137 20.9067C47.4528 19.2949 47.7276 17.6064 47.7273 15.9068ZM31.8184 4.54336C33.4591 4.54337 35.0802 4.89864 36.5705 5.58475C38.0608 6.27086 39.3848 7.27153 40.4516 8.51798C41.5184 9.76443 42.3026 11.2271 42.7504 12.8054C43.1982 14.3838 43.2989 16.0404 43.0455 17.6613C41.003 16.5196 38.7038 15.9159 36.3638 15.9068C34.4364 15.8736 32.5267 16.2801 30.7798 17.0954C29.3405 13.4296 26.6254 10.4071 23.1345 8.5842C24.1982 7.31639 25.5272 6.29745 27.0277 5.59925C28.5281 4.90105 30.1635 4.54061 31.8184 4.54336ZM38.6365 36.361H17.5664C14.1143 36.3574 10.8047 34.9845 8.3637 32.5435C5.92271 30.1025 4.54978 26.7929 4.54617 23.3408C4.49238 20.3339 5.58828 17.4198 7.61015 15.1935C9.63201 12.9673 12.4274 11.5966 15.4255 11.3614C18.2085 11.2825 20.926 12.213 23.0764 13.9813C25.2269 15.7495 26.665 18.236 27.1253 20.9817C27.1853 21.3745 27.3471 21.7448 27.5948 22.0555C27.8425 22.3662 28.1673 22.6066 28.5368 22.7526C28.9064 22.8986 29.3077 22.9452 29.7009 22.8877C30.0941 22.8302 30.4653 22.6706 30.7776 22.4249C32.4779 21.0508 34.6231 20.348 36.8069 20.4493C38.9907 20.5507 41.0616 21.4492 42.6274 22.9749C43.5201 23.8201 44.2313 24.8385 44.7174 25.9678C45.2035 27.097 45.4543 28.3135 45.4546 29.5429C45.4546 31.3512 44.7363 33.0854 43.4576 34.3641C42.179 35.6427 40.4448 36.361 38.6365 36.361Z" fill="black"/>
</svg>
