<svg width="29" height="28" viewBox="0 0 29 28" fill="none" xmlns="http://www.w3.org/2000/svg">
<path fill-rule="evenodd" clip-rule="evenodd" d="M20.8991 18.3518L28.4166 25.8694L26.4432 27.8428L18.9256 20.3253C17.0352 21.7948 14.6599 22.6698 12.0801 22.6698C5.91469 22.6698 0.916626 17.6717 0.916626 11.5063C0.916626 5.3409 5.91469 0.342834 12.0801 0.342834C18.2455 0.342834 23.2436 5.3409 23.2436 11.5063C23.2436 14.0861 22.3685 16.4615 20.8991 18.3518ZM12.0801 19.8789C16.7042 19.8789 20.4527 16.1304 20.4527 11.5063C20.4527 6.88225 16.7042 3.13371 12.0801 3.13371C7.45604 3.13371 3.7075 6.88225 3.7075 11.5063C3.7075 16.1304 7.45604 19.8789 12.0801 19.8789Z" fill="#575757"/>
</svg>
