<svg width="52" height="58" viewBox="0 0 52 58" fill="none" xmlns="http://www.w3.org/2000/svg">
<path d="M1 14.8889L10.7222 20.4444M10.7222 20.4444L26 28.7778M10.7222 20.4444L1 23.2222M10.7222 20.4444L9.33333 10.7222M51 42.6667L41.2778 37.1111M41.2778 37.1111L26 28.7778M41.2778 37.1111L42.6667 46.8333M41.2778 37.1111L51 34.3333M26 28.7778L10.7222 37.1111M26 28.7778V9.33333M26 28.7778V46.8333M26 28.7778L41.2778 20.4444M10.7222 37.1111L1 42.6667M10.7222 37.1111L1 34.3333M10.7222 37.1111L9.33333 46.8333M26 9.33333V1M26 9.33333L19.0556 6.55556M26 9.33333L32.9444 6.55556M26 46.8333V56.5556M26 46.8333L32.9444 51M26 46.8333L19.0556 51M41.2778 20.4444L51 14.8889M41.2778 20.4444L51 23.2222M41.2778 20.4444L42.6667 10.7222" stroke="black" stroke-width="1.82292" stroke-linecap="round" stroke-linejoin="round"/>
</svg>
