<svg width="50" height="50" viewBox="0 0 50 50" fill="none" xmlns="http://www.w3.org/2000/svg">
<path d="M0 22.8805C0 25.554 0.794797 27.9383 2.38439 30.0337C3.97399 32.1291 6.04528 33.5742 8.59827 34.3449L7.00867 38.3911C6.93642 38.7283 7.05684 38.921 7.34586 38.921H12.4759L10.1156 49.2775H10.79L20.2312 35.4287C20.3276 35.3324 20.3276 35.2119 20.2553 35.0915C20.183 34.9711 20.0626 34.9229 19.894 34.9229H14.6435L20.6166 23.7476C20.7852 23.4104 20.6647 23.2177 20.2794 23.2177H13.1985C12.9817 23.2177 12.789 23.3382 12.6445 23.579L10.0674 30.4913C8.35742 30.0578 6.93642 29.1185 5.80443 27.6975C4.67245 26.2765 4.1185 24.6628 4.1185 22.8565C4.1185 20.8574 4.79287 19.1233 6.1657 17.6301C7.53854 16.1609 9.22447 15.2938 11.2235 15.053L12.5 14.8844C12.8131 14.8844 12.9817 14.7399 12.9817 14.4509L13.1503 13.2225C13.4152 10.6214 14.499 8.42967 16.4499 6.67149C18.4008 4.9133 20.6888 4.02216 23.3141 4.02216C25.9393 4.02216 28.2274 4.9133 30.1782 6.67149C32.1532 8.42967 33.2611 10.6214 33.5501 13.2225L33.7187 14.6195C33.7187 14.8844 33.8632 15.0289 34.1522 15.0289H38.0058C40.1975 15.0289 42.052 15.7996 43.5934 17.317C45.1349 18.8343 45.9297 20.6888 45.9297 22.8083C45.9297 24.8555 45.2071 26.6378 43.7861 28.131C42.3651 29.6243 40.5829 30.4672 38.4875 30.6358C38.1744 30.6358 38.0058 30.7803 38.0058 31.0694V34.369C38.0058 34.6339 38.1744 34.7784 38.4875 34.7784C41.6908 34.6821 44.4123 33.4538 46.6522 31.1416C48.8921 28.8295 50 26.0597 50 22.8324C50 20.6647 49.4701 18.6657 48.3863 16.8353C47.3266 15.0048 45.8574 13.5597 44.027 12.5C42.1724 11.4403 40.1734 10.9104 38.0058 10.9104H37.2592C36.4644 7.70713 34.7543 5.08189 32.1773 3.05877C29.6002 1.03565 26.6378 0 23.3141 0C19.9181 0 16.8834 1.05973 14.2582 3.15511C11.6329 5.25048 9.94701 7.94798 9.20039 11.2476C6.52697 11.8738 4.33526 13.2466 2.60116 15.4143C0.867052 17.5819 0 20.1108 0 22.8805ZM19.605 46.2669C19.605 47.2062 20.0626 47.8324 21.0019 48.1214C21.026 48.1214 21.1224 48.1214 21.2669 48.1455C21.4114 48.1696 21.5318 48.1696 21.604 48.1696C22.0135 48.1696 22.3988 48.0491 22.7842 47.8083C23.1696 47.5674 23.4345 47.1821 23.5549 46.6522L28.974 25.7225C29.1185 25.1445 29.0703 24.6387 28.8054 24.157C28.5405 23.6994 28.1551 23.3863 27.6012 23.2177C27.1917 23.1696 26.975 23.1455 26.975 23.1455C26.5896 23.1455 26.2042 23.2659 25.843 23.5067C25.4817 23.7476 25.2168 24.1089 25.0963 24.5906L19.6532 45.5925C19.6291 45.8333 19.605 46.0501 19.605 46.2669ZM29.6243 38.8969C29.6243 39.21 29.6965 39.5231 29.8651 39.8121C30.2023 40.342 30.6118 40.7033 31.0935 40.8719C31.3584 40.9441 31.5992 40.9923 31.816 40.9923C32.0328 40.9923 32.2977 40.9441 32.5867 40.7996C33.0925 40.5829 33.4297 40.1252 33.5983 39.4268L37.0665 25.7707C37.1387 25.4335 37.1869 25.2168 37.1869 25.1204C37.1869 24.7592 37.0665 24.3979 36.8015 24.0366C36.5366 23.6753 36.1753 23.4104 35.6936 23.2659C35.2842 23.2177 35.0674 23.1936 35.0674 23.1936C34.658 23.1936 34.2726 23.3141 33.9355 23.5549C33.5983 23.7958 33.3574 24.157 33.2129 24.6387L29.6965 38.3671C29.6965 38.4152 29.6965 38.4875 29.6725 38.632C29.6243 38.7524 29.6243 38.8247 29.6243 38.8969Z" fill="black"/>
</svg>
